<?xml version="1.0" standalone="no"?>
<!DOCTYPE svg PUBLIC "-//W3C//DTD SVG 20010904//EN"
 "http://www.w3.org/TR/2001/REC-SVG-20010904/DTD/svg10.dtd">
<svg version="1.0" xmlns="http://www.w3.org/2000/svg"
 width="500.000000pt" height="499.000000pt" viewBox="0 0 500.000000 499.000000"
 preserveAspectRatio="xMidYMid meet">
<metadata>
Created by potrace 1.16, written by Peter Selinger 2001-2019
</metadata>
<g transform="translate(0.000000,499.000000) scale(0.100000,-0.100000)"
fill="#000000" stroke="none">
<path d="M1870 4025 l0 -925 -925 0 -925 0 0 -620 0 -620 925 0 925 0 0 -925
0 -925 223 0 c122 0 401 3 620 7 l397 6 0 919 0 918 918 0 919 0 6 382 c4 211
7 490 7 621 l0 237 -925 0 -925 0 0 925 0 925 -620 0 -620 0 0 -925z"/>
</g>
</svg>
